# xmcd CD database file
#
# Track frame offsets:
#	150
#	15014
#	28870
#	40325
#	58517
#	69963
#	81269
#	97015
#	108222
#	125257
#	137672
#	151357
#
# Disc length: 2223 seconds
#
# Revision: 0
# Processed by: cddbd v1.5.2PL0 Copyright (c) Steve Scherf et al.
# Submitted via: CDex 1.79
#
DISCID=8f08ad0c
DTITLE=Klein, Dani and Sal LA ROCCA - DANI  SINGS BILLIE
DYEAR=2015
DGENRE=Jazz
TTITLE0=Comes Love
TTITLE1=Do Your Duty
TTITLE2=Having Myself A Time
TTITLE3=Baby Get Lost
TTITLE4=A Fine Romance
TTITLE5=I'm Gonna Lock My Heart (And Throw Away The Key)
TTITLE6=Summertime
TTITLE7=Getting Some Fun Out Of Life
TTITLE8=Weep No More
TTITLE9=You Let Me Down
TTITLE10=I'm Painting The Town Red
TTITLE11=God Bless The Child
EXTD=YEAR: 2015
EXTT0=
EXTT1=
EXTT2=
EXTT3=
EXTT4=
EXTT5=
EXTT6=
EXTT7=
EXTT8=
EXTT9=
EXTT10=
EXTT11=
PLAYORDER=
